<svg width="161" height="28" viewBox="0 0 161 28" fill="none" xmlns="http://www.w3.org/2000/svg">
<g clip-path="url(#clip0_1270_8635)">
<path d="M37.5852 22.4746V5.52542H43.333C44.49 5.52542 45.4913 5.71083 46.3356 6.08296C47.1798 6.45508 47.8407 7.00743 48.3181 7.74131C48.7955 8.47648 49.0342 9.3841 49.0342 10.4655C49.0342 11.5468 48.7917 12.4596 48.3068 13.2013C47.8218 13.9442 47.1535 14.4966 46.3004 14.8596C45.4474 15.2227 44.4586 15.4042 43.333 15.4042H40.0715V22.4746H37.584H37.5852ZM40.0728 13.2259H43.2865C44.4599 13.2259 45.2878 12.9796 45.774 12.4869C46.259 11.9942 46.5014 11.3212 46.5014 10.4655C46.5014 9.60971 46.259 8.91214 45.774 8.41943C45.2891 7.92672 44.4599 7.68037 43.2865 7.68037H40.0728V13.2259Z" fill="#0C7570"/>
<path d="M56.0271 22.7663C54.9015 22.7663 53.8876 22.5122 52.9893 22.0039C52.0898 21.4956 51.3787 20.7656 50.8548 19.8126C50.3309 18.8609 50.0684 17.7381 50.0684 16.4467C50.0684 15.1553 50.3385 14.0415 50.8774 13.1053C51.4177 12.1692 52.1438 11.447 53.0597 10.9387C53.9743 10.4304 54.9957 10.1763 56.1214 10.1763C57.247 10.1763 58.2647 10.4266 59.1717 10.927C60.0788 11.4275 60.8062 12.1458 61.354 13.082C61.9017 14.0181 62.1756 15.1397 62.1756 16.448C62.1756 17.6745 61.9131 18.765 61.3892 19.7167C60.8653 20.6697 60.1416 21.4152 59.2195 21.9559C58.2961 22.4966 57.2332 22.7676 56.0284 22.7676L56.0271 22.7663ZM56.0498 20.5374C56.7382 20.5374 57.3513 20.3598 57.8915 20.0045C58.4318 19.6493 58.8577 19.1617 59.1705 18.5394C59.4833 17.9183 59.6404 17.2117 59.6404 16.4207C59.6404 15.6298 59.4883 14.9076 59.183 14.3021C58.8778 13.6966 58.4594 13.2285 57.928 12.8979C57.3965 12.5672 56.7784 12.4013 56.0749 12.4013C55.3713 12.4013 54.7105 12.5789 54.1866 12.9342C53.6627 13.2894 53.2632 13.7692 52.9906 14.3747C52.7167 14.9802 52.5798 15.67 52.5798 16.4454C52.5798 17.3335 52.7406 18.0843 53.0609 18.6976C53.3813 19.3109 53.8072 19.7711 54.3399 20.0771C54.8713 20.3844 55.4429 20.5374 56.0523 20.5374H56.0498Z" fill="#0C7570"/>
<path d="M69.5636 22.7663C68.4065 22.7663 67.409 22.4798 66.5723 21.9067C65.7356 21.3336 65.0936 20.5712 64.6488 19.6182C64.2028 18.6665 63.9805 17.6006 63.9805 16.422C63.9805 15.2434 64.2028 14.2062 64.6488 13.2622C65.0948 12.3183 65.7356 11.5676 66.5723 11.01C67.409 10.4525 68.4065 10.175 69.5636 10.175C70.4242 10.175 71.2056 10.3565 71.9104 10.7196C72.614 11.0826 73.1856 11.5948 73.6228 12.2574V5.52542H76.133V22.4759H73.7158L73.6216 20.6114C73.2459 21.2415 72.7069 21.7575 72.0021 22.1608C71.2986 22.564 70.4845 22.7663 69.5624 22.7663H69.5636ZM70.0561 20.5141C70.791 20.5141 71.4242 20.3365 71.9569 19.9812C72.4883 19.6259 72.8954 19.1423 73.1768 18.5277C73.4582 17.9144 73.5989 17.2285 73.5989 16.47C73.5989 15.5987 73.4381 14.8635 73.1178 14.2671C72.7974 13.6707 72.3665 13.2104 71.8275 12.8875C71.2873 12.5647 70.6893 12.4026 70.0322 12.4026C69.3752 12.4026 68.757 12.5724 68.2256 12.9109C67.6942 13.2493 67.2758 13.7186 66.9705 14.3151C66.6652 14.9128 66.5132 15.622 66.5132 16.4454C66.5132 17.2687 66.669 17.9624 66.9831 18.5757C67.2959 19.189 67.7181 19.6648 68.2495 20.0045C68.7809 20.343 69.384 20.5128 70.0561 20.5128V20.5141Z" fill="#0C7570"/>
<path d="M86.1974 22.7663C84.6333 22.7663 83.2764 22.3955 82.1269 21.6525C80.9774 20.9109 80.0816 19.8853 79.4409 18.577C78.7989 17.27 78.4785 15.7608 78.4785 14.0493C78.4785 12.3378 78.7913 10.8895 79.417 9.55785C80.0426 8.22624 80.961 7.1734 82.1734 6.39803C83.3857 5.62267 84.8519 5.23628 86.5731 5.23628C88.4651 5.23628 90.0343 5.70435 91.2768 6.6405C92.5205 7.57664 93.3296 8.86806 93.7053 10.5147H90.8898C90.6549 9.61101 90.1662 8.89658 89.4237 8.37146C88.6812 7.84763 87.7301 7.58442 86.5731 7.58442C85.416 7.58442 84.3757 7.8593 83.5466 8.40776C82.7174 8.95622 82.0917 9.71474 81.6696 10.6833C81.2475 11.6519 81.0364 12.7825 81.0364 14.0739C81.0364 15.3653 81.2475 16.4713 81.6696 17.4399C82.0917 18.4084 82.7061 19.1553 83.5114 19.6791C84.3167 20.2042 85.2665 20.4661 86.362 20.4661C87.9412 20.4661 89.1423 20.0188 89.9639 19.1229C90.7855 18.2269 91.2818 17.012 91.4539 15.4781H85.8695V13.3711H94.0105V22.4759H91.7115L91.5243 19.9579C90.9614 20.8616 90.2654 21.5566 89.4362 22.0402C88.6071 22.5251 87.5279 22.7663 86.1987 22.7663H86.1974Z" fill="#0C7570"/>
<path d="M96.6392 22.4746V10.4642H99.0325L99.1029 12.4985C99.4936 11.7724 100.03 11.2032 100.71 10.7909C101.391 10.3799 102.191 10.1737 103.114 10.1737V12.8616H102.433C101.323 12.8616 100.494 13.1559 99.9459 13.7459C99.3981 14.3358 99.1243 15.2356 99.1243 16.4454V22.4746H96.6367H96.6392Z" fill="#0C7570"/>
<path d="M110.13 22.7663C109.004 22.7663 107.99 22.5122 107.092 22.0039C106.192 21.4956 105.481 20.7656 104.957 19.8126C104.433 18.8609 104.171 17.7381 104.171 16.4467C104.171 15.1553 104.441 14.0415 104.98 13.1053C105.52 12.1692 106.246 11.447 107.162 10.9387C108.077 10.4304 109.098 10.1763 110.224 10.1763C111.35 10.1763 112.367 10.4266 113.274 10.927C114.181 11.4275 114.909 12.1458 115.457 13.082C116.004 14.0181 116.278 15.1397 116.278 16.448C116.278 17.6745 116.016 18.765 115.492 19.7167C114.968 20.6697 114.244 21.4152 113.322 21.9559C112.399 22.4966 111.336 22.7676 110.131 22.7676L110.13 22.7663ZM110.152 20.5374C110.841 20.5374 111.454 20.3598 111.994 20.0045C112.534 19.6493 112.96 19.1617 113.273 18.5394C113.586 17.9183 113.743 17.2117 113.743 16.4207C113.743 15.6298 113.591 14.9076 113.286 14.3021C112.98 13.6966 112.562 13.2285 112.031 12.8979C111.499 12.5672 110.881 12.4013 110.177 12.4013C109.474 12.4013 108.813 12.5789 108.289 12.9342C107.765 13.2894 107.366 13.7692 107.093 14.3747C106.819 14.9802 106.682 15.67 106.682 16.4454C106.682 17.3335 106.843 18.0843 107.163 18.6976C107.484 19.3109 107.91 19.7711 108.442 20.0771C108.974 20.3844 109.545 20.5374 110.155 20.5374H110.152Z" fill="#0C7570"/>
<path d="M122.915 22.7663C121.96 22.7663 121.14 22.5601 120.451 22.1491C119.763 21.7381 119.231 21.1404 118.856 20.3572C118.48 19.5741 118.293 18.634 118.293 17.5358V10.4655H120.757V17.1974C120.757 18.2632 120.995 19.0943 121.473 19.6921C121.95 20.2898 122.65 20.588 123.572 20.588C124.494 20.588 125.277 20.2613 125.825 19.6078C126.372 18.9543 126.646 18.0545 126.646 16.9083V10.4668H129.134V22.4772H126.741L126.694 20.6853C126.303 21.3478 125.774 21.86 125.11 22.223C124.445 22.5861 123.714 22.7676 122.916 22.7676L122.915 22.7663Z" fill="#0C7570"/>
<path d="M131.808 22.4746V10.4642H134.201L134.248 12.2314C134.638 11.5702 135.182 11.0606 135.878 10.7053C136.574 10.3501 137.313 10.1724 138.096 10.1724C139.456 10.1724 140.56 10.612 141.404 11.4924C142.248 12.3728 142.67 13.6836 142.67 15.4276V22.4733H140.183V15.7413C140.183 14.66 139.948 13.825 139.479 13.235C139.009 12.6463 138.306 12.3507 137.367 12.3507C136.429 12.3507 135.701 12.6775 135.138 13.331C134.576 13.9844 134.294 14.8843 134.294 16.0305V22.472H131.807L131.808 22.4746Z" fill="#0C7570"/>
<path d="M150.296 22.7663C149.139 22.7663 148.141 22.4798 147.305 21.9067C146.468 21.3336 145.826 20.5712 145.381 19.6182C144.935 18.6665 144.713 17.6006 144.713 16.422C144.713 15.2434 144.935 14.2062 145.381 13.2622C145.827 12.3183 146.468 11.5676 147.305 11.01C148.141 10.4525 149.139 10.175 150.296 10.175C151.157 10.175 151.938 10.3565 152.643 10.7196C153.346 11.0826 153.918 11.5948 154.355 12.2574V5.52542H156.865V22.4759H154.448L154.354 20.6114C153.978 21.2415 153.439 21.7575 152.735 22.1608C152.031 22.564 151.217 22.7663 150.295 22.7663H150.296ZM150.789 20.5141C151.523 20.5141 152.157 20.3365 152.689 19.9812C153.221 19.6259 153.628 19.1423 153.909 18.5277C154.191 17.9144 154.331 17.2285 154.331 16.47C154.331 15.5987 154.171 14.8635 153.85 14.2671C153.53 13.6707 153.099 13.2104 152.56 12.8875C152.02 12.5647 151.422 12.4026 150.765 12.4026C150.108 12.4026 149.489 12.5724 148.958 12.9109C148.427 13.2493 148.008 13.7186 147.703 14.3151C147.398 14.9128 147.246 15.622 147.246 16.4454C147.246 17.2687 147.401 17.9624 147.716 18.5757C148.028 19.189 148.45 19.6648 148.982 20.0045C149.513 20.343 150.116 20.5128 150.789 20.5128V20.5141Z" fill="#0C7570"/>
<path d="M16.8022 7.01523V17.7161C16.1376 17.7576 15.4667 17.7796 14.7921 17.7796C14.1174 17.7796 13.4465 17.7576 12.7807 17.7161V7.01523C12.7807 6.1504 13.4603 5.44894 14.2983 5.44894H15.2845C16.1238 5.44894 16.8022 6.1504 16.8022 7.01523ZM12.7819 19.5935V25.8315C12.7819 26.6963 13.4616 27.3978 14.2996 27.3978H15.2858C16.125 27.3978 16.8034 26.6963 16.8034 25.8315V19.5935C16.1363 19.6324 15.4667 19.6519 14.7933 19.6519C14.1199 19.6519 13.4503 19.6324 12.7819 19.5935ZM2.50513 11.0412H1.51765C0.679676 11.0412 0 11.7426 0 12.6075V14.1815C1.29528 14.8519 2.63704 15.4353 4.02278 15.9255V12.6075C4.02278 11.7426 3.3431 11.0412 2.50513 11.0412ZM0 20.2379C0 21.1028 0.679676 21.8042 1.51765 21.8042H2.50513C3.3431 21.8042 4.02278 21.1028 4.02278 20.2379V17.9157C2.6496 17.4593 1.30659 16.9148 0 16.2846V20.2379ZM21.6768 8.15883H20.6905C19.8513 8.15883 19.1729 8.86029 19.1729 9.72512V17.4801C20.541 17.2947 21.8828 17.0211 23.1944 16.6645V9.72382C23.1944 8.85899 22.5147 8.15753 21.6768 8.15753V8.15883ZM19.1729 23.1216C19.1729 23.9864 19.8513 24.6879 20.6905 24.6879H21.6768C22.5147 24.6879 23.1944 23.9864 23.1944 23.1216V18.6107C21.8753 18.9452 20.5335 19.2007 19.1729 19.3744V23.1216ZM23.1931 4.97308V2.62365C23.1931 1.62527 22.4092 0.816188 21.4418 0.816188H20.9242C19.9568 0.816188 19.1729 1.62527 19.1729 2.62365V4.97308C19.1729 5.97147 19.9568 6.78054 20.9242 6.78054H21.4418C22.4092 6.78054 23.1931 5.97147 23.1931 4.97308ZM8.89483 8.15883H7.90861C7.07064 8.15883 6.39096 8.86029 6.39096 9.72512V16.6658C7.70006 17.0224 9.04308 17.2947 10.4125 17.4814V9.72642C10.4125 8.86159 9.7328 8.16013 8.89483 8.16013V8.15883ZM6.39096 23.1216C6.39096 23.9864 7.07064 24.6879 7.90861 24.6879H8.89483C9.7328 24.6879 10.4125 23.9864 10.4125 23.1216V19.3744C9.05187 19.2007 7.71011 18.9452 6.39096 18.6107V23.1216ZM10.4125 4.76044V2.41101C10.4125 1.41262 9.62853 0.603546 8.66115 0.603546H8.14354C7.17617 0.603546 6.39222 1.41262 6.39222 2.41101V4.76044C6.39222 5.75882 7.17617 6.5679 8.14354 6.5679H8.66115C9.62853 6.5679 10.4125 5.75882 10.4125 4.76044ZM28.0665 11.6506H27.0802C26.2423 11.6506 25.5626 12.3507 25.5626 13.2169V15.9255C26.9458 15.434 28.2888 14.8506 29.5841 14.1815V13.2169C29.5841 12.3507 28.9044 11.6506 28.0665 11.6506ZM25.5626 19.6311C25.5626 20.496 26.2423 21.1974 27.0802 21.1974H28.0665C28.9044 21.1974 29.5841 20.496 29.5841 19.6311V16.2872C28.2788 16.9161 26.9358 17.4606 25.5626 17.917V19.6311ZM29.5841 8.26904V5.9196C29.5841 4.92122 28.8002 4.11214 27.8328 4.11214H27.3152C26.3478 4.11214 25.5638 4.92122 25.5638 5.9196V8.26904C25.5638 9.26742 26.3478 10.0765 27.3152 10.0765H27.8328C28.8002 10.0765 29.5841 9.26742 29.5841 8.26904Z" fill="#0C7570"/>
</g>
<defs>
<clipPath id="clip0_1270_8635">
<rect width="161" height="26.7929" fill="white" transform="translate(0 0.603546)"/>
</clipPath>
</defs>
</svg>
